<?xml version="1.0" encoding="UTF-8"?>
<svg id="Layer_1" xmlns="http://www.w3.org/2000/svg" version="1.1" viewBox="0 0 1600 1200">
  <!-- Generator: Adobe Illustrator 29.4.0, SVG Export Plug-In . SVG Version: 2.1.0 Build 152)  -->
  <defs>
    <style>
      .st0 {
        fill: #d81a5f;
      }
    </style>
  </defs>
  <g>
    <circle class="st0" cx="618.69" cy="466.15" r="20.83"/>
    <circle class="st0" cx="558.66" cy="424.5" r="20.83"/>
    <circle class="st0" cx="634.06" cy="541.06" r="20.83"/>
    <circle class="st0" cx="671.15" cy="627.39" r="20.83"/>
    <circle class="st0" cx="733.62" cy="699.01" r="20.83"/>
    <path class="st0" d="M529.68,312.28c2.54-16.42,6.13-32.67,10.75-48.63,7.74-26.78,23.85-57,51.67-58.82,26.03-1.7,45.65,22.73,58.32,45.54,68.96,124.14,80.82,278.4,171.28,387.86,68.28,82.62,178.35,128.75,285.13,119.51-118.19,1.73-235.45-59.78-301.21-158-73.02-109.06-81.62-251.07-152.08-361.8-12.13-19.07-27.93-38.3-50.04-42.99-26.21-5.56-52.9,12.13-66.4,35.27s-16.75,50.64-19.72,77.27c-6.52,58.49-13.04,116.99-19.56,175.48-6.32,56.73-4.85,113.92-3.39,171.04.73,28.61,1.87,57.21,3.4,85.79.48,8.95,6.69,21.36,14.47,16.9,3.78-2.17,4.48-7.25,4.59-11.61,1.17-44.95-13.95-91.42.58-133.97,3.01-8.8,9.13-18.45,18.43-18.45,12.54.01,17.25,16.1,19.12,28.51,5.1,33.91,17,67.55,39.19,93.7,22.19,26.15,55.62,43.96,89.87,42.28-57.82-12.82-105.41-63.19-114.91-121.65-2.24-13.74-2.7-28.28-9.57-40.39-6.88-12.11-23.28-20.4-35-12.86-2.06,1.32-4.07,3.13-6.51,3.1-5.18-.07-6.35-7.3-5.64-12.43,1.79-12.93,5.01-26.14,13.02-36.45,8-10.31,21.8-17.03,34.35-13.44,19.23,5.51,24.99,29.29,29.11,48.86,9.59,45.55,28.45,89.91,59.57,124.54,31.11,34.63,75.28,58.74,121.81,60.24-78.93-15.1-145.94-80.23-163.27-158.71-4.62-20.91-6.19-43.09-16.87-61.64-10.68-18.55-34.82-31.95-53.74-21.93-7.46,3.95-18.25,10.27-22.33,2.88-1.29-2.34-1-5.21-.67-7.87,2.35-19.02,4.9-38.63,14.54-55.2s28.35-29.42,47.24-26.19c15.71,2.68,27.96,15.76,34.48,30.31,6.52,14.54,8.4,30.66,11.11,46.36,11.1,64.46,38.11,127.13,82.98,174.72,44.87,47.59,108.49,78.88,173.89,78.34-70.34-5.6-137.7-41.92-181.02-97.63-36.42-46.83-55.42-105.01-66.35-163.33-4.11-21.9-7.85-45.45-23.11-61.69-18.29-19.46-51.73-22.07-72.8-5.67-3.64,2.83-8.63,6.25-12.29,3.44-1.95-1.5-2.45-4.19-2.69-6.64-2.13-21.68,5.57-44.48,21.59-59.24,16.02-14.76,36.43-20.71,56.86-13.13,19.47,7.23,33.23,24.76,43.35,42.89,27.86,49.95,39.27,108.78,60.81,161.76,25.53,62.76,71.31,117.1,128.83,152.9,57.52,35.8,126.49,52.89,194.07,48.08-128.2,1.65-253.8-78.49-306.33-195.45-26.05-58.01-35.37-123.36-68.51-177.63-12.17-19.92-28.76-38.9-51.2-45.36-25.64-7.38-53.72,3.54-73.69,21.24.42-16.75,1.92-33.48,4.49-50.04Z"/>
  </g>
  <g>
    <g>
      <path class="st0" d="M534.79,934.46c-12.55,0-22.58-4.4-30.08-13.19-7.5-8.79-11.26-20.7-11.26-35.71v-35.24c0-15.38,3.97-27.34,11.9-35.89,7.93-8.55,19.22-12.82,33.86-12.82,12.42,0,22.27,3.29,29.53,9.87,7.26,6.58,10.95,16.27,11.07,29.06h-18.45c0-13.66-7.5-20.48-22.51-20.48-17.96,0-26.94,10.09-26.94,30.26v35.24c0,20.3,8.86,30.45,26.57,30.45s26.2-10.15,26.2-30.45v-9.78h-27.86v-15.13h25.47c7.87,0,13.31,1.48,16.33,4.43,3.01,2.95,4.52,8.43,4.52,16.42v51.11h-18.45v-14.58h-.92c-6.15,10.95-15.81,16.42-28.97,16.42Z"/>
      <path class="st0" d="M606.39,932.61v-129.17h77.5v18.45h-59.05v35.8h59.05v16.79h-59.05v39.67h59.05v18.45h-77.5Z"/>
      <path class="st0" d="M707.33,932.61v-129.17h14.58l56.65,88.94v-88.94h18.45v129.17h-14.39l-56.84-88.94v88.94h-18.45Z"/>
      <path class="st0" d="M822.1,932.61v-129.17h77.5v18.45h-59.05v35.8h59.05v16.79h-59.05v39.67h59.05v18.45h-77.5Z"/>
      <path class="st0" d="M953.68,932.61l-41.52-129.17h19.56l28.79,89.68,28.79-89.68h19.38l-41.52,129.17h-13.47Z"/>
      <path class="st0" d="M1087.28,932.61l-10.15-28.6h-45.76l-10.15,28.6h-19.19l46.13-129.17h12.55l46.13,129.17h-19.56ZM1036.9,888.88h34.69l-17.35-48.9-17.35,48.9Z"/>
    </g>
    <g>
      <path class="st0" d="M493.46,1005.41v-46.85h16.53c5.18,0,9.21,1.61,12.12,4.82,2.9,3.21,4.35,7.59,4.35,13.12v11.05c0,5.53-1.46,9.9-4.38,13.09-2.92,3.19-6.95,4.79-12.08,4.79h-16.53ZM501.49,997.37h8.5c2.95,0,5.09-.82,6.43-2.48,1.34-1.65,2.01-4.1,2.01-7.36v-11.05c0-3.35-.68-5.83-2.04-7.46-1.36-1.63-3.49-2.44-6.39-2.44h-8.5v30.79Z"/>
      <path class="st0" d="M538.5,1005.41v-46.85h8.03v46.85h-8.03Z"/>
      <path class="st0" d="M572.5,1006.08c-5.18,0-9.13-1.32-11.85-3.95-2.72-2.63-4.06-6.54-4.02-11.71h8.7c-.04,2.68.48,4.62,1.57,5.82s3.11,1.81,6.06,1.81c5.18,0,7.76-1.85,7.76-5.56,0-1.43-.38-2.6-1.14-3.51-.76-.91-1.51-1.51-2.24-1.77-.74-.27-1.57-.51-2.51-.74-.18-.04-.31-.07-.4-.07l-6.16-1.47c-7.45-1.74-11.18-6.13-11.18-13.19,0-4.51,1.47-7.94,4.42-10.31,2.95-2.37,6.78-3.55,11.51-3.55s8.78,1.23,11.75,3.68c2.97,2.45,4.43,6.11,4.38,10.98h-8.7c.04-2.45-.46-4.18-1.51-5.19-1.05-1-2.96-1.48-5.72-1.44-5.4,0-8.1,1.85-8.1,5.55,0,3.12,1.99,5.09,5.96,5.89l5.42,1.14c3.26.76,5.71,1.74,7.36,2.95,3.26,2.41,4.89,5.96,4.89,10.64s-1.43,7.91-4.28,10.34c-2.86,2.43-6.85,3.65-11.98,3.65Z"/>
      <path class="st0" d="M599.21,1005.41v-46.85h28.11v8.03h-20.08v11.11h20.08v7.23h-20.08v12.45h20.08v8.03h-28.11Z"/>
      <path class="st0" d="M665.47,1005.41l-3.28-9.24h-15.53l-3.28,9.24h-8.3l16.73-46.85h5.49l16.73,46.85h-8.57ZM649.01,989.61h10.84l-5.42-15.13-5.42,15.13Z"/>
      <path class="st0" d="M695.53,1006.08c-5.18,0-9.13-1.32-11.85-3.95-2.72-2.63-4.06-6.54-4.02-11.71h8.7c-.04,2.68.48,4.62,1.57,5.82s3.11,1.81,6.06,1.81c5.18,0,7.76-1.85,7.76-5.56,0-1.43-.38-2.6-1.14-3.51-.76-.91-1.51-1.51-2.24-1.77-.74-.27-1.57-.51-2.51-.74-.18-.04-.31-.07-.4-.07l-6.16-1.47c-7.45-1.74-11.18-6.13-11.18-13.19,0-4.51,1.47-7.94,4.42-10.31s6.78-3.55,11.51-3.55,8.78,1.23,11.75,3.68c2.97,2.45,4.43,6.11,4.38,10.98h-8.7c.04-2.45-.46-4.18-1.51-5.19-1.05-1-2.96-1.48-5.72-1.44-5.4,0-8.1,1.85-8.1,5.55,0,3.12,1.99,5.09,5.96,5.89l5.42,1.14c3.26.76,5.71,1.74,7.36,2.95,3.26,2.41,4.89,5.96,4.89,10.64s-1.43,7.91-4.28,10.34c-2.86,2.43-6.85,3.65-11.98,3.65Z"/>
      <path class="st0" d="M722.23,1005.41v-46.85h28.11v8.03h-20.08v11.11h20.08v7.23h-20.08v12.45h20.08v8.03h-28.11Z"/>
      <path class="st0" d="M783.28,1005.41v-46.85h16.53c5.18,0,9.21,1.61,12.12,4.82,2.9,3.21,4.35,7.59,4.35,13.12v11.05c0,5.53-1.46,9.9-4.38,13.09s-6.95,4.79-12.08,4.79h-16.53ZM791.31,997.37h8.5c2.95,0,5.09-.82,6.43-2.48,1.34-1.65,2.01-4.1,2.01-7.36v-11.05c0-3.35-.68-5.83-2.04-7.46-1.36-1.63-3.49-2.44-6.39-2.44h-8.5v30.79Z"/>
      <path class="st0" d="M839.37,1005.41v-16.93l-14.99-29.92h8.97l10.04,19.95,9.91-19.95h8.97l-14.86,29.92v16.93h-8.03Z"/>
      <path class="st0" d="M871.03,1005.41v-46.85h6.16l18.81,29.12v-29.12h8.03v46.85h-6.16l-18.81-29.12v29.12h-8.03Z"/>
      <path class="st0" d="M941.17,1005.41l-3.28-9.24h-15.53l-3.28,9.24h-8.3l16.73-46.85h5.49l16.73,46.85h-8.57ZM924.71,989.61h10.84l-5.42-15.13-5.42,15.13Z"/>
      <path class="st0" d="M958.04,1005.41v-46.85h6.56l15.53,33.27,15.53-33.27h6.49v46.85h-8.03v-24.56l-11.45,24.56h-5.15l-11.45-24.56v24.56h-8.03Z"/>
      <path class="st0" d="M1014.87,1005.41v-46.85h8.03v46.85h-8.03Z"/>
      <path class="st0" d="M1050.88,1006.08c-4.86,0-8.72-1.61-11.58-4.82-2.85-3.21-4.28-7.56-4.28-13.05v-12.38c0-5.58,1.43-9.96,4.28-13.15,2.86-3.19,6.72-4.79,11.58-4.79s8.54,1.21,11.31,3.61c2.77,2.41,4.13,6.22,4.08,11.45h-7.96c.04-2.5-.55-4.29-1.77-5.39-1.23-1.09-3.11-1.64-5.66-1.64-5.22,0-7.83,3.3-7.83,9.91v12.38c0,6.56,2.61,9.84,7.83,9.84,2.36,0,4.19-.5,5.49-1.51,1.29-1,1.92-2.82,1.87-5.46h7.97c.04,5.22-1.32,9.03-4.08,11.41-2.77,2.39-6.51,3.58-11.24,3.58Z"/>
      <path class="st0" d="M1090.17,1006.08c-5.18,0-9.13-1.32-11.85-3.95-2.72-2.63-4.06-6.54-4.02-11.71h8.7c-.04,2.68.48,4.62,1.57,5.82s3.11,1.81,6.06,1.81c5.18,0,7.76-1.85,7.76-5.56,0-1.43-.38-2.6-1.14-3.51-.76-.91-1.51-1.51-2.24-1.77-.74-.27-1.57-.51-2.51-.74-.18-.04-.31-.07-.4-.07l-6.16-1.47c-7.45-1.74-11.18-6.13-11.18-13.19,0-4.51,1.47-7.94,4.42-10.31s6.78-3.55,11.51-3.55,8.78,1.23,11.75,3.68c2.97,2.45,4.43,6.11,4.38,10.98h-8.7c.04-2.45-.46-4.18-1.51-5.19-1.05-1-2.96-1.48-5.72-1.44-5.4,0-8.1,1.85-8.1,5.55,0,3.12,1.99,5.09,5.96,5.89l5.42,1.14c3.26.76,5.71,1.74,7.36,2.95,3.26,2.41,4.89,5.96,4.89,10.64s-1.43,7.91-4.28,10.34c-2.86,2.43-6.85,3.65-11.98,3.65Z"/>
    </g>
  </g>
</svg>