<?xml version="1.0" encoding="UTF-8"?>
<svg id="Layer_1" xmlns="http://www.w3.org/2000/svg" version="1.1" viewBox="0 0 1600 1200">
  <!-- Generator: Adobe Illustrator 29.4.0, SVG Export Plug-In . SVG Version: 2.1.0 Build 152)  -->
  <defs>
    <style>
      .st0 {
        fill: #d81a5f;
      }
    </style>
  </defs>
  <g>
    <circle class="st0" cx="1133.3" cy="592.94" r="13.4"/>
    <circle class="st0" cx="1094.68" cy="566.14" r="13.4"/>
    <circle class="st0" cx="1143.19" cy="641.14" r="13.4"/>
    <circle class="st0" cx="1167.06" cy="696.69" r="13.4"/>
    <circle class="st0" cx="1207.25" cy="742.77" r="13.4"/>
    <path class="st0" d="M1076.03,493.94c1.64-10.56,3.95-21.02,6.92-31.29,4.98-17.23,15.35-36.68,33.25-37.85,16.75-1.1,29.37,14.63,37.52,29.3,44.37,79.87,52,179.13,110.21,249.56,43.93,53.16,114.76,82.84,183.46,76.9-76.04,1.11-151.49-38.46-193.81-101.66-46.98-70.17-52.52-161.54-97.85-232.79-7.81-12.27-17.97-24.64-32.2-27.66-16.86-3.58-34.04,7.81-42.72,22.69-8.69,14.89-10.78,32.59-12.69,49.72-4.2,37.64-8.39,75.27-12.59,112.91-4.07,36.5-3.12,73.3-2.18,110.05.47,18.41,1.2,36.81,2.19,55.2.31,5.76,4.3,13.74,9.31,10.88,2.43-1.39,2.88-4.66,2.95-7.47.76-28.92-8.97-58.82.37-86.2,1.93-5.66,5.88-11.87,11.86-11.87,8.07,0,11.1,10.36,12.3,18.34,3.28,21.82,10.94,43.46,25.22,60.29,14.28,16.83,35.78,28.28,57.82,27.2-37.2-8.25-67.82-40.66-73.94-78.27-1.44-8.84-1.74-18.2-6.16-25.99-4.42-7.79-14.98-13.12-22.52-8.28-1.32.85-2.62,2.01-4.19,1.99-3.33-.04-4.09-4.7-3.63-8,1.15-8.32,3.23-16.82,8.38-23.46,5.15-6.64,14.03-10.96,22.1-8.65,12.37,3.54,16.08,18.84,18.73,31.44,6.17,29.31,18.31,57.85,38.33,80.13,20.02,22.28,48.44,37.8,78.38,38.76-50.79-9.71-93.9-51.62-105.05-102.12-2.97-13.45-3.98-27.73-10.85-39.66-6.87-11.94-22.4-20.56-34.58-14.11-4.8,2.54-11.74,6.61-14.37,1.86-.83-1.51-.65-3.35-.43-5.06,1.51-12.24,3.15-24.86,9.35-35.51,6.2-10.66,18.24-18.93,30.39-16.85,10.11,1.73,17.99,10.14,22.19,19.5,4.2,9.36,5.41,19.72,7.15,29.83,7.14,41.47,24.52,81.8,53.39,112.42,28.87,30.62,69.8,50.75,111.89,50.41-45.26-3.6-88.6-26.97-116.47-62.82-23.43-30.13-35.66-67.57-42.69-105.09-2.64-14.09-5.05-29.24-14.87-39.69-11.77-12.52-33.28-14.2-46.84-3.65-2.34,1.82-5.56,4.02-7.91,2.21-1.25-.96-1.57-2.7-1.73-4.27-1.37-13.95,3.58-28.62,13.89-38.12,10.31-9.5,23.44-13.32,36.58-8.45,12.53,4.65,21.38,15.93,27.89,27.6,17.93,32.14,25.27,69.99,39.13,104.08,16.42,40.38,45.88,75.34,82.89,98.38,37.01,23.04,81.39,34.03,124.87,30.93-82.49,1.06-163.3-50.5-197.1-125.75-16.76-37.32-22.75-79.37-44.08-114.29-7.83-12.82-18.51-25.03-32.94-29.19-16.5-4.75-34.56,2.28-47.41,13.66.27-10.78,1.24-21.54,2.89-32.2Z"/>
  </g>
  <g>
    <g>
      <path class="st0" d="M210.12,665.96c-17.46,0-31.41-6.12-41.84-18.35-10.44-12.24-15.66-28.79-15.66-49.67v-49.03c0-21.39,5.52-38.03,16.56-49.93,11.04-11.89,26.74-17.84,47.11-17.84,17.28,0,30.97,4.58,41.07,13.74,10.1,9.16,15.23,22.63,15.4,40.43h-25.67c0-19-10.44-28.49-31.32-28.49-24.99,0-37.48,14.03-37.48,42.1v49.03c0,28.24,12.32,42.36,36.97,42.36s36.45-14.12,36.45-42.36v-13.61h-38.76v-21.05h35.43c10.95,0,18.52,2.05,22.72,6.16,4.19,4.11,6.29,11.72,6.29,22.85v71.11h-25.67v-20.28h-1.28c-8.56,15.24-21.99,22.85-40.3,22.85Z"/>
      <path class="st0" d="M309.72,663.4v-179.7h107.82v25.67h-82.15v49.8h82.15v23.36h-82.15v55.19h82.15v25.67h-107.82Z"/>
      <path class="st0" d="M450.14,663.4v-179.7h20.28l78.81,123.74v-123.74h25.67v179.7h-20.02l-79.07-123.74v123.74h-25.67Z"/>
      <path class="st0" d="M609.81,663.4v-179.7h107.82v25.67h-82.15v49.8h82.15v23.36h-82.15v55.19h82.15v25.67h-107.82Z"/>
      <path class="st0" d="M792.85,663.4l-57.76-179.7h27.21l40.05,124.76,40.05-124.76h26.96l-57.76,179.7h-18.74Z"/>
      <path class="st0" d="M978.71,663.4l-14.12-39.79h-63.66l-14.12,39.79h-26.7l64.18-179.7h17.46l64.18,179.7h-27.21ZM908.62,602.56h48.26l-24.13-68.03-24.13,68.03Z"/>
    </g>
    <g>
      <path class="st0" d="M152.62,781.29v-65.18h23c7.2,0,12.82,2.24,16.85,6.71,4.04,4.47,6.05,10.55,6.05,18.25v15.36c0,7.7-2.03,13.77-6.1,18.2-4.07,4.44-9.67,6.66-16.81,6.66h-23ZM163.79,770.11h11.83c4.1,0,7.08-1.15,8.94-3.45,1.86-2.3,2.79-5.71,2.79-10.24v-15.36c0-4.66-.95-8.12-2.84-10.38-1.9-2.27-4.86-3.4-8.89-3.4h-11.83v42.84Z"/>
      <path class="st0" d="M215.28,781.29v-65.18h11.17v65.18h-11.17Z"/>
      <path class="st0" d="M262.58,782.21c-7.2,0-12.7-1.83-16.48-5.49s-5.65-9.09-5.59-16.3h12.11c-.06,3.73.66,6.43,2.19,8.1,1.52,1.68,4.33,2.51,8.43,2.51,7.2,0,10.8-2.57,10.8-7.73,0-1.99-.53-3.62-1.58-4.89-1.06-1.27-2.09-2.09-3.12-2.47-1.02-.37-2.19-.71-3.49-1.02-.25-.06-.43-.09-.56-.09l-8.57-2.05c-10.37-2.42-15.55-8.53-15.55-18.34,0-6.27,2.05-11.05,6.14-14.34,4.1-3.29,9.44-4.93,16.02-4.93s12.21,1.71,16.34,5.12c4.13,3.41,6.16,8.5,6.1,15.27h-12.11c.06-3.41-.64-5.82-2.09-7.22-1.46-1.4-4.11-2.06-7.96-2-7.51,0-11.27,2.57-11.27,7.73,0,4.35,2.76,7.08,8.29,8.2l7.54,1.58c4.53,1.06,7.95,2.42,10.24,4.1,4.53,3.35,6.8,8.29,6.8,14.81s-1.99,11-5.96,14.38c-3.97,3.39-9.53,5.07-16.67,5.07Z"/>
      <path class="st0" d="M299.74,781.29v-65.18h39.11v11.17h-27.93v15.46h27.93v10.06h-27.93v17.32h27.93v11.17h-39.11Z"/>
      <path class="st0" d="M391.92,781.29l-4.56-12.85h-21.6l-4.56,12.85h-11.55l23.28-65.18h7.64l23.28,65.18h-11.92ZM369.01,759.31h15.09l-7.54-21.04-7.54,21.04Z"/>
      <path class="st0" d="M433.73,782.21c-7.2,0-12.7-1.83-16.48-5.49s-5.65-9.09-5.59-16.3h12.11c-.06,3.73.66,6.43,2.19,8.1,1.52,1.68,4.33,2.51,8.43,2.51,7.2,0,10.8-2.57,10.8-7.73,0-1.99-.53-3.62-1.58-4.89-1.06-1.27-2.09-2.09-3.12-2.47-1.02-.37-2.19-.71-3.49-1.02-.25-.06-.43-.09-.56-.09l-8.57-2.05c-10.37-2.42-15.55-8.53-15.55-18.34,0-6.27,2.05-11.05,6.14-14.34,4.1-3.29,9.44-4.93,16.02-4.93s12.21,1.71,16.34,5.12c4.13,3.41,6.16,8.5,6.1,15.27h-12.11c.06-3.41-.64-5.82-2.09-7.22-1.46-1.4-4.11-2.06-7.96-2-7.51,0-11.27,2.57-11.27,7.73,0,4.35,2.76,7.08,8.29,8.2l7.54,1.58c4.53,1.06,7.95,2.42,10.24,4.1,4.53,3.35,6.8,8.29,6.8,14.81s-1.99,11-5.96,14.38c-3.97,3.39-9.53,5.07-16.67,5.07Z"/>
      <path class="st0" d="M470.88,781.29v-65.18h39.11v11.17h-27.93v15.46h27.93v10.06h-27.93v17.32h27.93v11.17h-39.11Z"/>
      <path class="st0" d="M555.8,781.29v-65.18h23c7.2,0,12.82,2.24,16.85,6.71,4.04,4.47,6.05,10.55,6.05,18.25v15.36c0,7.7-2.03,13.77-6.1,18.2-4.07,4.44-9.67,6.66-16.81,6.66h-23ZM566.97,770.11h11.83c4.1,0,7.08-1.15,8.94-3.45,1.86-2.3,2.79-5.71,2.79-10.24v-15.36c0-4.66-.95-8.12-2.84-10.38-1.9-2.27-4.86-3.4-8.89-3.4h-11.83v42.84Z"/>
      <path class="st0" d="M633.83,781.29v-23.56l-20.86-41.62h12.48l13.97,27.75,13.78-27.75h12.48l-20.67,41.62v23.56h-11.18Z"/>
      <path class="st0" d="M677.87,781.29v-65.18h8.57l26.16,40.51v-40.51h11.17v65.18h-8.57l-26.16-40.51v40.51h-11.17Z"/>
      <path class="st0" d="M775.45,781.29l-4.56-12.85h-21.6l-4.56,12.85h-11.55l23.28-65.18h7.64l23.28,65.18h-11.92ZM752.55,759.31h15.09l-7.54-21.04-7.54,21.04Z"/>
      <path class="st0" d="M798.92,781.29v-65.18h9.13l21.6,46.28,21.6-46.28h9.03v65.18h-11.17v-34.17l-15.92,34.17h-7.17l-15.92-34.17v34.17h-11.17Z"/>
      <path class="st0" d="M877.97,781.29v-65.18h11.17v65.18h-11.17Z"/>
      <path class="st0" d="M928.07,782.21c-6.77,0-12.14-2.23-16.11-6.7-3.98-4.47-5.96-10.52-5.96-18.16v-17.23c0-7.76,1.99-13.86,5.96-18.3,3.97-4.44,9.34-6.66,16.11-6.66s11.89,1.67,15.74,5.03c3.85,3.35,5.74,8.66,5.68,15.92h-11.08c.06-3.48-.76-5.97-2.47-7.49-1.71-1.52-4.33-2.28-7.87-2.28-7.26,0-10.89,4.59-10.89,13.78v17.23c0,9.13,3.63,13.69,10.89,13.69,3.29,0,5.83-.7,7.64-2.09,1.8-1.4,2.67-3.92,2.61-7.59h11.08c.06,7.26-1.83,12.56-5.68,15.88s-9.06,4.98-15.64,4.98Z"/>
      <path class="st0" d="M982.73,782.21c-7.2,0-12.7-1.83-16.48-5.49-3.79-3.66-5.65-9.09-5.59-16.3h12.11c-.06,3.73.66,6.43,2.19,8.1,1.52,1.68,4.33,2.51,8.43,2.51,7.2,0,10.8-2.57,10.8-7.73,0-1.99-.53-3.62-1.58-4.89-1.06-1.27-2.09-2.09-3.12-2.47-1.02-.37-2.19-.71-3.49-1.02-.25-.06-.43-.09-.56-.09l-8.57-2.05c-10.37-2.42-15.55-8.53-15.55-18.34,0-6.27,2.05-11.05,6.14-14.34,4.1-3.29,9.44-4.93,16.02-4.93s12.21,1.71,16.34,5.12c4.13,3.41,6.16,8.5,6.1,15.27h-12.11c.06-3.41-.64-5.82-2.09-7.22-1.46-1.4-4.11-2.06-7.96-2-7.51,0-11.27,2.57-11.27,7.73,0,4.35,2.76,7.08,8.29,8.2l7.54,1.58c4.53,1.06,7.95,2.42,10.24,4.1,4.53,3.35,6.8,8.29,6.8,14.81s-1.99,11-5.96,14.38c-3.97,3.39-9.53,5.07-16.67,5.07Z"/>
    </g>
  </g>
</svg>